<svg aria-hidden="true" style="width:0;height:0;position:absolute;overflow:hidden" xmlns="http://www.w3.org/2000/svg"><defs><symbol id="Bitcoinistorg" viewBox="0 0 411 32"><path fill="#fff" style="fill:var(--color1,#fff)" d="M13.123 1.217V7.72H4.278l4.056-4.056v25.383l-4.056-4.056h8.845v6.503H.082V1.217h13.041zM43.823 14.712l.699-1.608c1.981.07 3.636.385 4.965.944s2.319 1.34 2.972 2.343c.676.979 1.014 2.156 1.014 3.531 0 1.422-.326 2.704-.979 3.846-.629 1.142-1.597 2.039-2.902 2.692s-2.937.979-4.895.979H24.104l1.993-13.46-1.993-12.761h19.859c2.424 0 4.324.571 5.699 1.713 1.375 1.119 2.063 2.68 2.063 4.685 0 1.142-.256 2.214-.769 3.216s-1.352 1.853-2.517 2.552c-1.142.676-2.68 1.119-4.615 1.329zM32.915 25.48l-3.426-4.021h12.342c.769 0 1.375-.198 1.818-.594.443-.42.664-.979.664-1.678a2.19 2.19 0 0 0-.664-1.608c-.42-.443-1.049-.664-1.888-.664H31.412v-5.874h9.02c.606 0 1.107-.186 1.503-.559.419-.373.629-.851.629-1.433 0-.536-.186-.979-.559-1.329s-.897-.524-1.573-.524H29.524l3.391-4.021 1.783 10.803-1.783 11.503zM56.522 1.217h9.02v26.222h-9.02V1.217zM77.812 5.097h9.02v22.341h-9.02V5.097zm-9.44-3.88h27.9v8.041h-27.9V1.217zM128.347 16.075c-.279 2.401-1.107 4.498-2.482 6.293-1.352 1.795-3.147 3.193-5.384 4.195s-4.802 1.503-7.692 1.503c-3.123 0-5.85-.571-8.181-1.713s-4.148-2.739-5.454-4.79c-1.282-2.074-1.923-4.487-1.923-7.237s.641-5.151 1.923-7.202c1.305-2.074 3.122-3.683 5.454-4.825s5.058-1.713 8.181-1.713c2.89 0 5.454.501 7.692 1.503s4.032 2.401 5.384 4.195c1.375 1.795 2.203 3.892 2.482 6.293h-9.055c-.209-.909-.594-1.678-1.154-2.308-.559-.653-1.294-1.142-2.202-1.468-.886-.35-1.935-.524-3.147-.524-1.352 0-2.517.245-3.497.734-.955.466-1.689 1.154-2.202 2.063s-.769 1.993-.769 3.252c0 1.259.256 2.342.769 3.252.513.886 1.247 1.573 2.202 2.063.979.489 2.145.734 3.497.734 1.212 0 2.26-.151 3.147-.454.909-.326 1.643-.804 2.202-1.433.559-.653.945-1.457 1.154-2.412h9.055zM146.361 28.067c-3.193 0-5.99-.571-8.391-1.713-2.378-1.142-4.231-2.739-5.559-4.79-1.328-2.074-1.993-4.487-1.993-7.237s.664-5.151 1.993-7.202c1.328-2.074 3.182-3.683 5.559-4.825 2.401-1.142 5.198-1.713 8.391-1.713s5.979.571 8.356 1.713c2.401 1.142 4.266 2.75 5.594 4.825 1.328 2.051 1.993 4.452 1.993 7.202s-.664 5.163-1.993 7.237c-1.328 2.051-3.193 3.648-5.594 4.79-2.377 1.142-5.163 1.713-8.356 1.713zm0-8.041c1.422 0 2.645-.221 3.671-.664 1.026-.466 1.807-1.119 2.343-1.958.559-.862.839-1.888.839-3.077s-.28-2.203-.839-3.042c-.536-.862-1.317-1.515-2.343-1.958-1.026-.466-2.25-.699-3.671-.699s-2.645.233-3.671.699c-1.025.443-1.817 1.095-2.377 1.958-.536.839-.805 1.853-.805 3.042s.269 2.214.805 3.077c.56.839 1.352 1.492 2.377 1.958 1.026.443 2.25.664 3.671.664zM165.505 1.217h9.02v26.222h-9.02V1.217zM203.017 20.865l-2.447.594V1.216h8.741v26.222h-11.293L185.012 7.23l2.447-.594v20.802h-8.741V1.216h11.643l12.655 19.649zM213.51 1.217h9.02v26.222h-9.02V1.217zM225.85 18.803h9.16c.093.513.362.956.804 1.329.443.35 1.049.629 1.818.839.769.186 1.69.28 2.762.28 1.399 0 2.482-.14 3.251-.42.793-.28 1.189-.734 1.189-1.363 0-.419-.221-.769-.664-1.049-.442-.303-1.352-.501-2.727-.594l-4.335-.28c-3.939-.256-6.782-1.095-8.53-2.517s-2.622-3.298-2.622-5.629c0-1.958.56-3.589 1.678-4.895s2.681-2.284 4.686-2.937c2.028-.653 4.394-.979 7.097-.979 2.634 0 4.965.373 6.993 1.119 2.051.723 3.671 1.748 4.859 3.077 1.212 1.329 1.876 2.879 1.994 4.65h-9.161c-.07-.42-.303-.781-.699-1.084-.372-.303-.909-.536-1.608-.699s-1.551-.245-2.552-.245c-1.282 0-2.296.128-3.042.385-.722.256-1.084.676-1.084 1.259 0 .396.209.734.629 1.014.443.28 1.282.466 2.517.559l4.895.315c2.564.163 4.638.548 6.223 1.154 1.585.583 2.739 1.399 3.462 2.447.746 1.049 1.119 2.343 1.119 3.881 0 1.935-.571 3.624-1.713 5.069s-2.75 2.575-4.825 3.391c-2.051.792-4.452 1.189-7.202 1.189-2.843 0-5.337-.385-7.482-1.154s-3.823-1.853-5.034-3.252c-1.189-1.398-1.807-3.018-1.853-4.86zM264.367 5.097h9.02v22.341h-9.02V5.097zm-9.44-3.88h27.9v8.041h-27.9V1.217zM284.851 27.858c-.885 0-1.701-.21-2.447-.629a4.636 4.636 0 0 1-1.712-1.713 4.903 4.903 0 0 1-.629-2.447c0-.909.209-1.725.629-2.447s.99-1.294 1.712-1.713a4.916 4.916 0 0 1 2.447-.629c.91 0 1.725.21 2.447.629s1.294.991 1.713 1.713c.419.723.629 1.538.629 2.447 0 .886-.21 1.702-.629 2.447-.42.723-.991 1.294-1.713 1.713s-1.538.629-2.447.629zM306.968 28.067c-3.193 0-5.99-.571-8.391-1.713-2.378-1.142-4.23-2.739-5.559-4.79-1.329-2.074-1.993-4.487-1.993-7.237s.664-5.151 1.993-7.202c1.329-2.074 3.182-3.683 5.559-4.825 2.401-1.142 5.198-1.713 8.391-1.713s5.979.571 8.356 1.713c2.401 1.142 4.266 2.75 5.594 4.825 1.329 2.051 1.993 4.452 1.993 7.202s-.664 5.163-1.993 7.237c-1.329 2.051-3.193 3.648-5.594 4.79-2.377 1.142-5.163 1.713-8.356 1.713zm0-8.041c1.422 0 2.645-.221 3.671-.664 1.026-.466 1.807-1.119 2.343-1.958.559-.862.839-1.888.839-3.077s-.28-2.203-.839-3.042c-.536-.862-1.317-1.515-2.343-1.958-1.026-.466-2.25-.699-3.671-.699s-2.645.233-3.671.699c-1.025.443-1.817 1.095-2.377 1.958-.536.839-.804 1.853-.804 3.042s.268 2.214.804 3.077c.56.839 1.352 1.492 2.377 1.958 1.026.443 2.25.664 3.671.664zM332.336 12.439h8.811c.885 0 1.573-.21 2.063-.629s.734-1.026.734-1.818-.244-1.398-.734-1.818-1.177-.629-2.063-.629h-10.069l4.055-4.056v23.949h-9.02V1.216h16.433c2.097 0 3.927.373 5.488 1.119 1.585.723 2.809 1.736 3.671 3.042.886 1.305 1.329 2.844 1.329 4.615 0 1.725-.442 3.252-1.329 4.58-.862 1.305-2.086 2.319-3.671 3.042-1.561.723-3.391 1.084-5.488 1.084h-10.209V12.44zm3.077 2.727h9.964l8.706 12.272h-10.314l-8.356-12.272zM383.702 16.11a14.811 14.811 0 0 1-.979 4.475 11.492 11.492 0 0 1-2.412 3.846c-1.049 1.119-2.389 2.004-4.021 2.657s-3.566.979-5.804.979c-2.028 0-3.951-.291-5.769-.874-1.795-.583-3.391-1.445-4.789-2.587-1.375-1.165-2.459-2.599-3.251-4.3-.793-1.725-1.189-3.718-1.189-5.978s.396-4.242 1.189-5.944c.792-1.725 1.9-3.158 3.321-4.3 1.422-1.165 3.065-2.039 4.93-2.622s3.881-.874 6.048-.874c3.03 0 5.617.454 7.761 1.364 2.168.886 3.904 2.109 5.209 3.671 1.329 1.562 2.203 3.368 2.622 5.419h-9.055c-.209-.653-.629-1.2-1.259-1.643-.606-.466-1.352-.816-2.237-1.049-.886-.256-1.876-.385-2.972-.385-1.352 0-2.517.233-3.496.699a4.879 4.879 0 0 0-2.273 2.063c-.513.932-.769 2.133-.769 3.601 0 1.492.291 2.727.874 3.706.606.979 1.457 1.701 2.552 2.168 1.119.466 2.436.699 3.952.699 1.468 0 2.773-.163 3.916-.489 1.141-.35 2.063-.874 2.762-1.573.722-.723 1.166-1.631 1.329-2.727h3.811zm-11.259 2.413v-5.104h14.335v14.02h-6.258l-1.329-10.034 1.573 1.119h-8.321zM398.033 1.217h13.041v30.277h-13.041v-6.503h8.846l-4.055 4.056V3.664l4.055 4.056h-8.846V1.217z"/></symbol><symbol id="matrix" viewBox="0 0 75 32"><path fill="#fff" style="fill:var(--color1,#fff)" d="M.84.731v30.492h2.192v.731H0V0h3.031v.731H.84zm8.443 9.667v1.543h.044a4.453 4.453 0 0 1 1.486-1.367c.579-.323 1.244-.485 1.991-.485.719 0 1.376.14 1.97.42s1.046.77 1.354 1.476c.338-.5.795-.94 1.376-1.322s1.265-.573 2.058-.573c.602 0 1.159.074 1.673.22.514.148.953.383 1.321.706.366.323.652.745.858 1.267s.308 1.149.308 1.885v7.626h-3.124v-6.458c0-.383-.015-.742-.044-1.081a2.294 2.294 0 0 0-.242-.881 1.471 1.471 0 0 0-.583-.595c-.257-.146-.605-.22-1.046-.22s-.795.085-1.067.253c-.272.17-.485.39-.638.661a2.664 2.664 0 0 0-.308.926 7.065 7.065 0 0 0-.078 1.047v6.349h-3.125v-6.392c0-.338-.007-.672-.021-1.003a2.812 2.812 0 0 0-.188-.915 1.405 1.405 0 0 0-.55-.672c-.258-.168-.635-.253-1.134-.253a2.32 2.32 0 0 0-.584.1 1.93 1.93 0 0 0-.704.374c-.228.184-.422.449-.583.793s-.242.797-.242 1.356v6.613H6.335V10.4h2.949zm16.442 1.676a3.742 3.742 0 0 1 1.232-1.169 5.347 5.347 0 0 1 1.684-.628 9.594 9.594 0 0 1 1.882-.187c.573 0 1.152.04 1.738.121s1.123.24 1.608.475c.484.235.879.562 1.189.98.308.42.462.974.462 1.665v5.929c0 .516.03 1.007.088 1.477.058.471.161.823.308 1.059h-3.168a4.415 4.415 0 0 1-.22-1.103c-.5.515-1.086.875-1.761 1.08a7.08 7.08 0 0 1-2.069.31 5.551 5.551 0 0 1-1.519-.2 3.488 3.488 0 0 1-1.233-.616 2.856 2.856 0 0 1-.825-1.058c-.199-.426-.298-.933-.298-1.521 0-.646.114-1.179.342-1.599.227-.419.52-.752.88-1.003.36-.25.77-.437 1.233-.562.462-.125.928-.224 1.398-.298s.931-.132 1.386-.176c.456-.044.859-.11 1.211-.199s.63-.217.836-.386.301-.415.287-.739c0-.337-.055-.605-.166-.803a1.218 1.218 0 0 0-.44-.464 1.743 1.743 0 0 0-.638-.22 5.24 5.24 0 0 0-.781-.055c-.616 0-1.1.132-1.453.397s-.558.705-.616 1.322h-3.125c.044-.734.227-1.344.55-1.828zm6.173 4.419a5.021 5.021 0 0 1-.638.165 9.644 9.644 0 0 1-.715.11c-.25.03-.5.067-.748.11a5.498 5.498 0 0 0-.693.177 2.028 2.028 0 0 0-.593.298c-.17.125-.305.284-.408.474-.103.192-.154.434-.154.727 0 .28.051.515.154.705.103.192.242.342.419.453s.381.187.616.231c.234.044.477.066.725.066.616 0 1.093-.102 1.431-.309a2.07 2.07 0 0 0 .749-.738c.16-.286.26-.576.297-.869.036-.295.055-.53.055-.706v-1.169a1.411 1.411 0 0 1-.496.277zm11.853-6.095v2.094h-2.289v5.642c0 .53.088.882.264 1.058s.529.265 1.056.265c.177 0 .345-.007.507-.022.161-.015.315-.037.462-.066v2.424a7.448 7.448 0 0 1-.881.089c-.315.014-.631.022-.946.022-.484 0-.943-.034-1.376-.1a3.21 3.21 0 0 1-1.144-.386 2.035 2.035 0 0 1-.781-.815c-.191-.353-.287-.815-.287-1.389v-6.722h-1.893v-2.094h1.893V6.981h3.126v3.417h2.289zm4.467 0v2.116h.044a3.89 3.89 0 0 1 1.453-1.752 4.236 4.236 0 0 1 1.035-.497c.37-.118.756-.177 1.144-.176.206 0 .433.037.682.11v2.909a5.89 5.89 0 0 0-.528-.077 5.361 5.361 0 0 0-.594-.033c-.573 0-1.057.096-1.453.287a2.517 2.517 0 0 0-.957.782c-.249.346-.425.74-.518 1.157-.106.47-.157.951-.154 1.433v5.136h-3.125V10.398h2.97zm5.679-1.763v-2.58h3.125v2.58h-3.125zm3.126 1.763v11.395h-3.124V10.398h3.124zm1.628 0h3.566l2.003 2.975 1.98-2.975h3.456l-3.742 5.334 4.204 6.062h-3.567l-2.376-3.593-2.378 3.593h-3.499l4.093-5.996-3.742-5.4zm15.284 20.825V.731h-2.192V0h3.032v31.954h-3.032v-.731h2.192z"/></symbol></defs></svg>