<svg aria-hidden="true" style="position: absolute; width: 0; height: 0; overflow: hidden;" version="1.1" xmlns="http://www.w3.org/2000/svg" xmlns:xlink="http://www.w3.org/1999/xlink">
<defs>
<symbol id="Bitcoinistorg" viewBox="0 0 411 32">
<path fill="#fff" style="fill: var(--color1, #fff)" d="M13.123 1.217v6.503h-8.845l4.056-4.056v25.383l-4.056-4.056h8.845v6.503h-13.041v-30.277h13.041z"></path>
<path fill="#fff" style="fill: var(--color1, #fff)" d="M43.823 14.712l0.699-1.608c1.981 0.070 3.636 0.385 4.965 0.944s2.319 1.34 2.972 2.343c0.676 0.979 1.014 2.156 1.014 3.531 0 1.422-0.326 2.704-0.979 3.846-0.629 1.142-1.597 2.039-2.902 2.692s-2.937 0.979-4.895 0.979h-20.593l1.993-13.46-1.993-12.761h19.859c2.424 0 4.324 0.571 5.699 1.713 1.375 1.119 2.063 2.68 2.063 4.685 0 1.142-0.256 2.214-0.769 3.216s-1.352 1.853-2.517 2.552c-1.142 0.676-2.68 1.119-4.615 1.329zM32.915 25.48l-3.426-4.021h12.342c0.769 0 1.375-0.198 1.818-0.594 0.443-0.42 0.664-0.979 0.664-1.678 0-0.629-0.221-1.165-0.664-1.608-0.42-0.443-1.049-0.664-1.888-0.664h-10.349v-5.874h9.020c0.606 0 1.107-0.186 1.503-0.559 0.419-0.373 0.629-0.851 0.629-1.433 0-0.536-0.186-0.979-0.559-1.329s-0.897-0.524-1.573-0.524h-10.908l3.391-4.021 1.783 10.803-1.783 11.503z"></path>
<path fill="#fff" style="fill: var(--color1, #fff)" d="M56.522 1.217h9.020v26.222h-9.020v-26.222z"></path>
<path fill="#fff" style="fill: var(--color1, #fff)" d="M77.812 5.097h9.020v22.341h-9.020v-22.341zM68.372 1.217h27.9v8.041h-27.9v-8.041z"></path>
<path fill="#fff" style="fill: var(--color1, #fff)" d="M128.347 16.075c-0.279 2.401-1.107 4.498-2.482 6.293-1.352 1.795-3.147 3.193-5.384 4.195s-4.802 1.503-7.692 1.503c-3.123 0-5.85-0.571-8.181-1.713s-4.148-2.739-5.454-4.79c-1.282-2.074-1.923-4.487-1.923-7.237s0.641-5.151 1.923-7.202c1.305-2.074 3.122-3.683 5.454-4.825s5.058-1.713 8.181-1.713c2.89 0 5.454 0.501 7.692 1.503s4.032 2.401 5.384 4.195c1.375 1.795 2.203 3.892 2.482 6.293h-9.055c-0.209-0.909-0.594-1.678-1.154-2.308-0.559-0.653-1.294-1.142-2.202-1.468-0.886-0.35-1.935-0.524-3.147-0.524-1.352 0-2.517 0.245-3.497 0.734-0.955 0.466-1.689 1.154-2.202 2.063s-0.769 1.993-0.769 3.252c0 1.259 0.256 2.342 0.769 3.252 0.513 0.886 1.247 1.573 2.202 2.063 0.979 0.489 2.145 0.734 3.497 0.734 1.212 0 2.26-0.151 3.147-0.454 0.909-0.326 1.643-0.804 2.202-1.433 0.559-0.653 0.945-1.457 1.154-2.412h9.055z"></path>
<path fill="#fff" style="fill: var(--color1, #fff)" d="M146.361 28.067c-3.193 0-5.99-0.571-8.391-1.713-2.378-1.142-4.231-2.739-5.559-4.79-1.328-2.074-1.993-4.487-1.993-7.237s0.664-5.151 1.993-7.202c1.328-2.074 3.182-3.683 5.559-4.825 2.401-1.142 5.198-1.713 8.391-1.713s5.979 0.571 8.356 1.713c2.401 1.142 4.266 2.75 5.594 4.825 1.328 2.051 1.993 4.452 1.993 7.202s-0.664 5.163-1.993 7.237c-1.328 2.051-3.193 3.648-5.594 4.79-2.377 1.142-5.163 1.713-8.356 1.713zM146.361 20.026c1.422 0 2.645-0.221 3.671-0.664 1.026-0.466 1.807-1.119 2.343-1.958 0.559-0.862 0.839-1.888 0.839-3.077s-0.28-2.203-0.839-3.042c-0.536-0.862-1.317-1.515-2.343-1.958-1.026-0.466-2.25-0.699-3.671-0.699s-2.645 0.233-3.671 0.699c-1.025 0.443-1.817 1.095-2.377 1.958-0.536 0.839-0.805 1.853-0.805 3.042s0.269 2.214 0.805 3.077c0.56 0.839 1.352 1.492 2.377 1.958 1.026 0.443 2.25 0.664 3.671 0.664z"></path>
<path fill="#fff" style="fill: var(--color1, #fff)" d="M165.505 1.217h9.020v26.222h-9.020v-26.222z"></path>
<path fill="#fff" style="fill: var(--color1, #fff)" d="M203.017 20.865l-2.447 0.594v-20.243h8.741v26.222h-11.293l-13.006-20.208 2.447-0.594v20.802h-8.741v-26.222h11.643l12.655 19.649z"></path>
<path fill="#fff" style="fill: var(--color1, #fff)" d="M213.51 1.217h9.020v26.222h-9.020v-26.222z"></path>
<path fill="#fff" style="fill: var(--color1, #fff)" d="M225.85 18.803h9.16c0.093 0.513 0.362 0.956 0.804 1.329 0.443 0.35 1.049 0.629 1.818 0.839 0.769 0.186 1.69 0.28 2.762 0.28 1.399 0 2.482-0.14 3.251-0.42 0.793-0.28 1.189-0.734 1.189-1.363 0-0.419-0.221-0.769-0.664-1.049-0.442-0.303-1.352-0.501-2.727-0.594l-4.335-0.28c-3.939-0.256-6.782-1.095-8.53-2.517s-2.622-3.298-2.622-5.629c0-1.958 0.56-3.589 1.678-4.895s2.681-2.284 4.686-2.937c2.028-0.653 4.394-0.979 7.097-0.979 2.634 0 4.965 0.373 6.993 1.119 2.051 0.723 3.671 1.748 4.859 3.077 1.212 1.329 1.876 2.879 1.994 4.65h-9.161c-0.070-0.42-0.303-0.781-0.699-1.084-0.372-0.303-0.909-0.536-1.608-0.699s-1.551-0.245-2.552-0.245c-1.282 0-2.296 0.128-3.042 0.385-0.722 0.256-1.084 0.676-1.084 1.259 0 0.396 0.209 0.734 0.629 1.014 0.443 0.28 1.282 0.466 2.517 0.559l4.895 0.315c2.564 0.163 4.638 0.548 6.223 1.154 1.585 0.583 2.739 1.399 3.462 2.447 0.746 1.049 1.119 2.343 1.119 3.881 0 1.935-0.571 3.624-1.713 5.069s-2.75 2.575-4.825 3.391c-2.051 0.792-4.452 1.189-7.202 1.189-2.843 0-5.337-0.385-7.482-1.154s-3.823-1.853-5.034-3.252c-1.189-1.398-1.807-3.018-1.853-4.86z"></path>
<path fill="#fff" style="fill: var(--color1, #fff)" d="M264.367 5.097h9.020v22.341h-9.020v-22.341zM254.927 1.217h27.9v8.041h-27.9v-8.041z"></path>
<path fill="#fff" style="fill: var(--color1, #fff)" d="M284.851 27.858c-0.885 0-1.701-0.21-2.447-0.629-0.722-0.419-1.294-0.991-1.712-1.713-0.42-0.746-0.629-1.562-0.629-2.447 0-0.909 0.209-1.725 0.629-2.447s0.99-1.294 1.712-1.713c0.747-0.419 1.562-0.629 2.447-0.629 0.91 0 1.725 0.21 2.447 0.629s1.294 0.991 1.713 1.713c0.419 0.723 0.629 1.538 0.629 2.447 0 0.886-0.21 1.702-0.629 2.447-0.42 0.723-0.991 1.294-1.713 1.713s-1.538 0.629-2.447 0.629z"></path>
<path fill="#fff" style="fill: var(--color1, #fff)" d="M306.968 28.067c-3.193 0-5.99-0.571-8.391-1.713-2.378-1.142-4.23-2.739-5.559-4.79-1.329-2.074-1.993-4.487-1.993-7.237s0.664-5.151 1.993-7.202c1.329-2.074 3.182-3.683 5.559-4.825 2.401-1.142 5.198-1.713 8.391-1.713s5.979 0.571 8.356 1.713c2.401 1.142 4.266 2.75 5.594 4.825 1.329 2.051 1.993 4.452 1.993 7.202s-0.664 5.163-1.993 7.237c-1.329 2.051-3.193 3.648-5.594 4.79-2.377 1.142-5.163 1.713-8.356 1.713zM306.968 20.026c1.422 0 2.645-0.221 3.671-0.664 1.026-0.466 1.807-1.119 2.343-1.958 0.559-0.862 0.839-1.888 0.839-3.077s-0.28-2.203-0.839-3.042c-0.536-0.862-1.317-1.515-2.343-1.958-1.026-0.466-2.25-0.699-3.671-0.699s-2.645 0.233-3.671 0.699c-1.025 0.443-1.817 1.095-2.377 1.958-0.536 0.839-0.804 1.853-0.804 3.042s0.268 2.214 0.804 3.077c0.56 0.839 1.352 1.492 2.377 1.958 1.026 0.443 2.25 0.664 3.671 0.664z"></path>
<path fill="#fff" style="fill: var(--color1, #fff)" d="M332.336 12.439h8.811c0.885 0 1.573-0.21 2.063-0.629s0.734-1.026 0.734-1.818-0.244-1.398-0.734-1.818-1.177-0.629-2.063-0.629h-10.069l4.055-4.056v23.949h-9.020v-26.222h16.433c2.097 0 3.927 0.373 5.488 1.119 1.585 0.723 2.809 1.736 3.671 3.042 0.886 1.305 1.329 2.844 1.329 4.615 0 1.725-0.442 3.252-1.329 4.58-0.862 1.305-2.086 2.319-3.671 3.042-1.561 0.723-3.391 1.084-5.488 1.084h-10.209v-6.258zM335.413 15.166h9.964l8.706 12.272h-10.314l-8.356-12.272z"></path>
<path fill="#fff" style="fill: var(--color1, #fff)" d="M383.702 16.11c-0.093 1.538-0.42 3.030-0.979 4.475-0.535 1.422-1.34 2.704-2.412 3.846-1.049 1.119-2.389 2.004-4.021 2.657s-3.566 0.979-5.804 0.979c-2.028 0-3.951-0.291-5.769-0.874-1.795-0.583-3.391-1.445-4.789-2.587-1.375-1.165-2.459-2.599-3.251-4.3-0.793-1.725-1.189-3.718-1.189-5.978s0.396-4.242 1.189-5.944c0.792-1.725 1.9-3.158 3.321-4.3 1.422-1.165 3.065-2.039 4.93-2.622s3.881-0.874 6.048-0.874c3.030 0 5.617 0.454 7.761 1.364 2.168 0.886 3.904 2.109 5.209 3.671 1.329 1.562 2.203 3.368 2.622 5.419h-9.055c-0.209-0.653-0.629-1.2-1.259-1.643-0.606-0.466-1.352-0.816-2.237-1.049-0.886-0.256-1.876-0.385-2.972-0.385-1.352 0-2.517 0.233-3.496 0.699-0.979 0.443-1.737 1.13-2.273 2.063-0.513 0.932-0.769 2.133-0.769 3.601 0 1.492 0.291 2.727 0.874 3.706 0.606 0.979 1.457 1.701 2.552 2.168 1.119 0.466 2.436 0.699 3.952 0.699 1.468 0 2.773-0.163 3.916-0.489 1.141-0.35 2.063-0.874 2.762-1.573 0.722-0.723 1.166-1.631 1.329-2.727h3.811zM372.443 18.523v-5.104h14.335v14.020h-6.258l-1.329-10.034 1.573 1.119h-8.321z"></path>
<path fill="#fff" style="fill: var(--color1, #fff)" d="M398.033 1.217h13.041v30.277h-13.041v-6.503h8.846l-4.055 4.056v-25.383l4.055 4.056h-8.846v-6.503z"></path>
</symbol>
<symbol id="matrix" viewBox="0 0 75 32">
<path fill="#fff" style="fill: var(--color1, #fff)" d="M0.84 0.731v30.492h2.192v0.731h-3.032v-31.954h3.031v0.731h-2.191zM9.283 10.398v1.543h0.044c0.384-0.563 0.892-1.031 1.486-1.367 0.579-0.323 1.244-0.485 1.991-0.485 0.719 0 1.376 0.14 1.97 0.42s1.046 0.77 1.354 1.476c0.338-0.5 0.795-0.94 1.376-1.322s1.265-0.573 2.058-0.573c0.602 0 1.159 0.074 1.673 0.22 0.514 0.148 0.953 0.383 1.321 0.706 0.366 0.323 0.652 0.745 0.858 1.267s0.308 1.149 0.308 1.885v7.626h-3.124v-6.458c0-0.383-0.015-0.742-0.044-1.081-0.021-0.307-0.103-0.607-0.242-0.881-0.133-0.251-0.336-0.457-0.583-0.595-0.257-0.146-0.605-0.22-1.046-0.22s-0.795 0.085-1.067 0.253c-0.272 0.17-0.485 0.39-0.638 0.661-0.159 0.287-0.263 0.601-0.308 0.926-0.052 0.347-0.078 0.697-0.078 1.047v6.349h-3.125v-6.392c0-0.338-0.007-0.672-0.021-1.003-0.011-0.313-0.075-0.623-0.188-0.915-0.108-0.276-0.3-0.512-0.55-0.672-0.258-0.168-0.635-0.253-1.134-0.253-0.198 0.008-0.394 0.042-0.584 0.1-0.258 0.074-0.498 0.202-0.704 0.374-0.228 0.184-0.422 0.449-0.583 0.793s-0.242 0.797-0.242 1.356v6.613h-3.126v-11.396h2.949zM25.725 12.074c0.316-0.479 0.737-0.879 1.232-1.169 0.522-0.303 1.091-0.515 1.684-0.628 0.62-0.124 1.25-0.187 1.882-0.187 0.573 0 1.152 0.040 1.738 0.121s1.123 0.24 1.608 0.475c0.484 0.235 0.879 0.562 1.189 0.98 0.308 0.42 0.462 0.974 0.462 1.665v5.929c0 0.516 0.030 1.007 0.088 1.477 0.058 0.471 0.161 0.823 0.308 1.059h-3.168c-0.12-0.357-0.194-0.727-0.22-1.103-0.5 0.515-1.086 0.875-1.761 1.080-0.671 0.205-1.368 0.31-2.069 0.31-0.544 0-1.049-0.067-1.519-0.2-0.448-0.121-0.867-0.331-1.233-0.616-0.355-0.282-0.638-0.645-0.825-1.058-0.199-0.426-0.298-0.933-0.298-1.521 0-0.646 0.114-1.179 0.342-1.599 0.227-0.419 0.52-0.752 0.88-1.003 0.36-0.25 0.77-0.437 1.233-0.562 0.462-0.125 0.928-0.224 1.398-0.298s0.931-0.132 1.386-0.176c0.456-0.044 0.859-0.11 1.211-0.199s0.63-0.217 0.836-0.386 0.301-0.415 0.287-0.739c0-0.337-0.055-0.605-0.166-0.803-0.103-0.191-0.254-0.351-0.44-0.464-0.196-0.114-0.413-0.189-0.638-0.22-0.259-0.038-0.52-0.056-0.781-0.055-0.616 0-1.1 0.132-1.453 0.397s-0.558 0.705-0.616 1.322h-3.125c0.044-0.734 0.227-1.344 0.55-1.828zM31.898 16.493c-0.209 0.069-0.422 0.124-0.638 0.165-0.237 0.046-0.476 0.082-0.715 0.11-0.25 0.030-0.5 0.067-0.748 0.11-0.235 0.044-0.466 0.103-0.693 0.177-0.213 0.066-0.413 0.167-0.593 0.298-0.17 0.125-0.305 0.284-0.408 0.474-0.103 0.192-0.154 0.434-0.154 0.727 0 0.28 0.051 0.515 0.154 0.705 0.103 0.192 0.242 0.342 0.419 0.453s0.381 0.187 0.616 0.231c0.234 0.044 0.477 0.066 0.725 0.066 0.616 0 1.093-0.102 1.431-0.309 0.338-0.205 0.586-0.452 0.749-0.738 0.16-0.286 0.26-0.576 0.297-0.869 0.036-0.295 0.055-0.53 0.055-0.706v-1.169c-0.145 0.125-0.313 0.219-0.496 0.277zM43.751 10.398v2.094h-2.289v5.642c0 0.53 0.088 0.882 0.264 1.058s0.529 0.265 1.056 0.265c0.177 0 0.345-0.007 0.507-0.022 0.161-0.015 0.315-0.037 0.462-0.066v2.424c-0.292 0.047-0.586 0.077-0.881 0.089-0.315 0.014-0.631 0.022-0.946 0.022-0.484 0-0.943-0.034-1.376-0.1-0.402-0.055-0.79-0.186-1.144-0.386-0.332-0.193-0.603-0.475-0.781-0.815-0.191-0.353-0.287-0.815-0.287-1.389v-6.722h-1.893v-2.094h1.893v-3.417h3.126v3.417h2.289zM48.218 10.398v2.116h0.044c0.299-0.716 0.805-1.326 1.453-1.752 0.321-0.212 0.669-0.379 1.035-0.497 0.37-0.118 0.756-0.177 1.144-0.176 0.206 0 0.433 0.037 0.682 0.11v2.909c-0.175-0.034-0.351-0.059-0.528-0.077-0.197-0.022-0.396-0.033-0.594-0.033-0.573 0-1.057 0.096-1.453 0.287-0.379 0.177-0.708 0.446-0.957 0.782-0.249 0.346-0.425 0.74-0.518 1.157-0.106 0.47-0.157 0.951-0.154 1.433v5.136h-3.125v-11.395h2.97zM53.897 8.635v-2.58h3.125v2.58h-3.125zM57.023 10.398v11.395h-3.124v-11.395h3.124zM58.651 10.398h3.566l2.003 2.975 1.98-2.975h3.456l-3.742 5.334 4.204 6.062h-3.567l-2.376-3.593-2.378 3.593h-3.499l4.093-5.996-3.742-5.4zM73.935 31.223v-30.492h-2.192v-0.731h3.032v31.954h-3.032v-0.731h2.192z"></path>
</symbol>
</defs>
</svg>
